<?xml version="1.0" encoding="UTF-8" standalone="no"?><!DOCTYPE svg PUBLIC "-//W3C//DTD SVG 1.1//EN" "http://www.w3.org/Graphics/SVG/1.1/DTD/svg11.dtd"><svg width="100%" height="100%" viewBox="0 0 25985 29528" version="1.1" xmlns="http://www.w3.org/2000/svg" xmlns:xlink="http://www.w3.org/1999/xlink" xml:space="preserve" xmlns:serif="http://www.serif.com/" style="fill-rule:evenodd;clip-rule:evenodd;stroke-linejoin:bevel;stroke-miterlimit:10;"><rect id="Page-2" serif:id="Page 2" x="0" y="0" width="25984.2" height="29527.5" style="fill:none;"/><clipPath id="_clip1"><rect x="0" y="0" width="25984.2" height="29527.5"/></clipPath><g clip-path="url(#_clip1)"><path d="M6733.42,1085.35c-0,985.342 -798.779,1784.12 -1784.12,1784.12c-985.346,-0 -1784.12,-798.779 -1784.12,-1784.12c-0,-985.342 798.779,-1784.12 1784.12,-1784.12c985.342,0 1784.12,798.779 1784.12,1784.12Z" style="fill:none;fill-rule:nonzero;stroke:url(#_Linear2);stroke-width:58.16px;"/><path d="M25522.1,16364.9c-1662.04,-255.258 -2802.45,-1809.54 -2547.19,-3471.57c255.263,-1662.03 1809.54,-2802.45 3471.57,-2547.19c1662.04,255.262 2802.45,1809.54 2547.19,3471.57c-255.263,1662.04 -1809.54,2802.45 -3471.57,2547.19Z" style="fill:none;fill-rule:nonzero;stroke:url(#_Linear3);stroke-width:58.16px;stroke-linejoin:miter;"/><path d="M30858.5,14765.1l-4335.45,4335.45l-0,3118.86c-0,-0 -1622.13,1242.39 -2864.52,-0l-3257.59,3257.59l3218.46,0l0,-2332.49l-1216.91,1216.91l3426.34,0l-3806.52,3806.52l-8335.81,-0l0,4442.99" style="fill:none;fill-rule:nonzero;stroke:url(#_Linear4);stroke-width:58.16px;"/><path d="M34999.4,-1800.09l-7882.96,7882.95l-1758.23,1758.23l366.896,366.896l430.029,-430.033l-893.659,-893.659c0,0 -1290.96,-61.821 -1290.97,1290.97l-0,1352.79l-1667.15,-1667.15l890.625,0.004l-734.95,-734.95l0.004,-3398.93l-4365.7,0l0.004,-1280.74l1230.42,-0l-0,3472.53c-0,-0 2775.29,1736.26 -0.004,4511.55l-1859.3,-1859.31c-0,0 -998.009,-1134.73 -2132.73,0c-1134.73,1134.72 -1968.68,-0.004 -1968.68,-0.004l1667.91,-1667.9l-3472.53,-0.004l0,1257.77l779.267,779.27l-0,-943.325l-3411.01,3411.01l0.004,-5997.56l-4372.87,0l2736.82,2736.82l-0,-1220.05l-3020.43,-0.004l-6074.28,-6074.28" style="fill:none;fill-rule:nonzero;stroke:url(#_Linear5);stroke-width:58.16px;"/><path d="M-697.662,16756.8l4348.81,4348.81l-3610.01,-0l3585.53,-3585.53l1579.42,1579.42l0,2500.13l-594.854,-0l-0,-600.913l1364.27,0c-0,0 -203.109,-1897.81 1897.8,-1897.81l-0,1521.46l3261.33,0l-3883.7,3883.7l-399.871,-399.87l3279.97,-0l51.896,1.462l3160.35,15.567l2134.62,-2134.62l-1136.62,-1136.62l-1133.15,1133.15l1888.59,1888.59c-0,-0 2914.31,284.154 2914.31,-2914.32l-1964.83,-1964.82l-623.75,-623.754l4373.2,-0l0,1011.87l2380.66,-2380.66l2579.38,2579.37l5644.21,0l0,1050.02c0,-0 -1107.91,-58.721 -1107.91,-0l-0,-2473.64l5328.5,0l2468.6,2468.6l-0,-5317.5" style="fill:none;fill-rule:nonzero;stroke:url(#_Linear6);stroke-width:58.16px;"/><path d="M-2271.37,16339.1l4501.2,-0l-2109.93,-2109.94l3952.22,0l0,-2860.13l-1092.09,-0l-0,1031.53l1969.28,-0l-0,-3704.11c-0,0 -1457.52,-2152.81 -3610.34,0c0,0 -1781.72,2063.05 -3844.77,0" style="fill:none;fill-rule:nonzero;stroke:url(#_Linear7);stroke-width:51.69px;"/><path d="M10008,-208.255l-0,4342.27l4787.62,0.004l-0,-779.383l-868.454,0l-0,1514.23l-2471.75,0l-0,-3607.42l5811.95,0c22.271,0 835.054,835.054 835.054,835.054l2427.22,-2427.22" style="fill:none;fill-rule:nonzero;stroke:url(#_Linear8);stroke-width:49.1px;stroke-linejoin:miter;"/><path d="M41169.2,-1417.07c-158.27,356.113 -3895.21,3895.21 -3895.21,3895.21l-4278.22,-4278.23l0,3957.33l-6967.96,-0l1292.56,-1292.55l2004.78,2004.78l-6251.76,-0l4464.6,-4464.6" style="fill:none;fill-rule:nonzero;stroke:url(#_Linear9);stroke-width:58.16px;"/><path d="M7549.19,30274.5c-158.271,0 -4932.82,-4932.82 -4932.82,-4932.82l3877.67,0.004l-5394.45,5394.45" style="fill:none;fill-rule:nonzero;stroke:url(#_Linear10);stroke-width:58.16px;"/></g><defs><linearGradient id="_Linear2" x1="0" y1="0" x2="1" y2="0" gradientUnits="userSpaceOnUse" gradientTransform="matrix(3626.4,-4.4305e-13,4.4305e-13,3626.4,3136.1,1085.33)"><stop offset="0" style="stop-color:#152b26;stop-opacity:1"/><stop offset="0.38" style="stop-color:#975b69;stop-opacity:1"/><stop offset="0.45" style="stop-color:#ca6580;stop-opacity:1"/><stop offset="1" style="stop-color:#6cc4c6;stop-opacity:1"/></linearGradient><linearGradient id="_Linear3" x1="0" y1="0" x2="1" y2="0" gradientUnits="userSpaceOnUse" gradientTransform="matrix(-933.208,6076.25,-6076.25,-933.208,26450.9,10317.4)"><stop offset="0" style="stop-color:#080e0e;stop-opacity:1"/><stop offset="0.55" style="stop-color:#152b26;stop-opacity:1"/><stop offset="1" style="stop-color:#6cc4c6;stop-opacity:1"/></linearGradient><linearGradient id="_Linear4" x1="0" y1="0" x2="1" y2="0" gradientUnits="userSpaceOnUse" gradientTransform="matrix(-17523.5,17523.5,17523.5,17523.5,31060.9,14967.5)"><stop offset="0" style="stop-color:#152b26;stop-opacity:1"/><stop offset="0.35" style="stop-color:#7c545c;stop-opacity:1"/><stop offset="0.45" style="stop-color:#ca6580;stop-opacity:1"/><stop offset="1" style="stop-color:#6cc4c6;stop-opacity:1"/></linearGradient><linearGradient id="_Linear5" x1="0" y1="0" x2="1" y2="0" gradientUnits="userSpaceOnUse" gradientTransform="matrix(-36844.6,0,0,36844.6,35020,4803.88)"><stop offset="0" style="stop-color:#152b26;stop-opacity:1"/><stop offset="0.45" style="stop-color:#975b69;stop-opacity:1"/><stop offset="0.53" style="stop-color:#ca6580;stop-opacity:1"/><stop offset="1" style="stop-color:#c9a067;stop-opacity:1"/></linearGradient><linearGradient id="_Linear6" x1="0" y1="0" x2="1" y2="0" gradientUnits="userSpaceOnUse" gradientTransform="matrix(37836.4,-4.62258e-12,4.62258e-12,37836.4,-718.225,19917.8)"><stop offset="0" style="stop-color:#152b26;stop-opacity:1"/><stop offset="0.45" style="stop-color:#ca6580;stop-opacity:1"/><stop offset="1" style="stop-color:#6cc4c6;stop-opacity:1"/></linearGradient><linearGradient id="_Linear7" x1="0" y1="0" x2="1" y2="0" gradientUnits="userSpaceOnUse" gradientTransform="matrix(0,-8651.17,8651.17,0,1225.53,16364.9)"><stop offset="0" style="stop-color:#152b26;stop-opacity:1"/><stop offset="0.45" style="stop-color:#975b69;stop-opacity:1"/><stop offset="0.53" style="stop-color:#ca6580;stop-opacity:1"/><stop offset="1" style="stop-color:#c9a067;stop-opacity:1"/></linearGradient><linearGradient id="_Linear8" x1="0" y1="0" x2="1" y2="0" gradientUnits="userSpaceOnUse" gradientTransform="matrix(-10563.5,1.29058e-12,-1.29058e-12,-10563.5,20547,2272.67)"><stop offset="0" style="stop-color:#080e0e;stop-opacity:1"/><stop offset="0.55" style="stop-color:#152b26;stop-opacity:1"/><stop offset="1" style="stop-color:#6cc4c6;stop-opacity:1"/></linearGradient><linearGradient id="_Linear9" x1="0" y1="0" x2="1" y2="0" gradientUnits="userSpaceOnUse" gradientTransform="matrix(-18143,2.21658e-12,-2.21658e-12,-18143,41195.8,538.958)"><stop offset="0" style="stop-color:#152b26;stop-opacity:1"/><stop offset="0.45" style="stop-color:#ca6580;stop-opacity:1"/><stop offset="1" style="stop-color:#6cc4c6;stop-opacity:1"/></linearGradient><linearGradient id="_Linear10" x1="0" y1="0" x2="1" y2="0" gradientUnits="userSpaceOnUse" gradientTransform="matrix(-6470.17,7.90479e-13,-7.90479e-13,-6470.17,7549.17,28034.6)"><stop offset="0" style="stop-color:#152b26;stop-opacity:1"/><stop offset="0.45" style="stop-color:#ca6580;stop-opacity:1"/><stop offset="1" style="stop-color:#6cc4c6;stop-opacity:1"/></linearGradient></defs></svg>